<?xml version="1.0" encoding="UTF-8"?>
<!DOCTYPE svg PUBLIC "-//W3C//DTD SVG 1.1//EN" "http://www.w3.org/Graphics/SVG/1.1/DTD/svg11.dtd">
<!-- Creator: CorelDRAW X8 -->
<svg xmlns="http://www.w3.org/2000/svg" xml:space="preserve" width="210mm" height="120mm" version="1.1" style="shape-rendering:geometricPrecision; text-rendering:geometricPrecision; image-rendering:optimizeQuality; fill-rule:evenodd; clip-rule:evenodd"
viewBox="0 0 21000 12000"
 xmlns:xlink="http://www.w3.org/1999/xlink">
 <defs>
  <style type="text/css">
   <![CDATA[
    .str2 {stroke:#FEFEFE;stroke-width:75}
    .str0 {stroke:#8D8F92;stroke-width:50}
    .str1 {stroke:#00AFEF;stroke-width:50}
    .fil5 {fill:#FEFEFE}
    .fil0 {fill:#8D8F92}
    .fil1 {fill:#00AFEF}
    .fil4 {fill:#FEFEFE;fill-rule:nonzero}
    .fil3 {fill:#8D8F92;fill-rule:nonzero}
    .fil2 {fill:#00AFEF;fill-rule:nonzero}
   ]]>
  </style>
 </defs>
 <g id="Layer_x0020_1">
  <metadata id="CorelCorpID_0Corel-Layer"/>
  <g id="_889329920">
   <path class="fil0 str0" d="M4605 8695c-27,0 -40,-13 -40,-40l0 -2514c0,-27 13,-41 40,-41l1874 0c27,0 40,14 40,41l0 121c0,26 -13,40 -40,40l-1673 0c-13,0 -20,7 -20,20l0 2151c0,14 7,21 20,21l1673 0 3 0 139 0 -94 201 -324 0 -1598 0zm584 -1370c0,-27 14,-41 41,-41l982 0c27,0 40,14 40,41l0 121c0,26 -13,40 -40,40l-982 0c-27,0 -41,-14 -41,-40l0 -121z"/>
   <path class="fil1 str1" d="M7779 7231l116 -245c13,-24 32,-36 55,-36l121 0c27,0 46,12 56,36l1189 2524c13,23 5,35 -25,35l-146 0c-24,0 -42,-12 -56,-35l-373 -791c-3,-14 -13,-20 -30,-20l-927 0c-30,0 -39,-12 -25,-36l65 -131c14,-23 32,-35 56,-35l756 0 -600 -1275 -45 96 0 0 -220 465 -813 1727c-2,4 -4,8 -6,11l-549 1163 -228 0 1629 -3453 0 0z"/>
   <path class="fil1 str1" d="M9699 7545c0,-171 58,-313 174,-426 116,-112 264,-169 446,-169l1375 0c27,0 40,14 40,41l0 121c0,26 -13,40 -40,40l-1375 0c-115,0 -210,36 -288,108 -77,72 -115,162 -115,270l0 1436c0,107 37,197 113,269 75,73 172,109 290,109l1375 0c27,0 40,13 40,40l0 121c0,27 -13,40 -40,40l-1375 0c-182,0 -330,-55 -446,-166 -116,-111 -174,-254 -174,-428l0 -1406z"/>
   <path class="fil1 str1" d="M12022 7152c-27,0 -41,-14 -41,-40l0 -121c0,-27 14,-41 41,-41l2126 0c27,0 40,14 40,41l0 121c0,26 -13,40 -40,40l-2126 0zm1133 403c27,0 41,13 41,40l0 1910c0,27 -14,40 -41,40l-141 0c-27,0 -40,-13 -40,-40l0 -1910c0,-27 13,-40 40,-40l141 0z"/>
   <path class="fil1 str1" d="M14647 9545c-27,0 -41,-13 -41,-40l0 -2514c0,-27 14,-41 41,-41l1874 0c27,0 40,14 40,41l0 121c0,26 -13,40 -40,40l-1673 0c-13,0 -20,7 -20,20l0 2151c0,14 7,21 20,21l1673 0c27,0 40,13 40,40l0 121c0,27 -13,40 -40,40l-1874 0zm584 -1370c0,-27 14,-41 41,-41l982 0c27,0 40,14 40,41l0 121c0,26 -13,40 -40,40l-982 0c-27,0 -41,-14 -41,-40l0 -121z"/>
   <path class="fil1 str1" d="M17216 9545c-26,0 -40,-13 -40,-40l0 -2514c0,-27 14,-41 40,-41l1557 0c172,0 318,58 439,174 121,116 181,256 181,421l0 1406c0,164 -60,304 -181,420 -121,116 -267,174 -439,174l-932 0c-27,0 -40,-13 -40,-40l0 -121c0,-27 13,-40 40,-40l907 0c128,0 230,-38 308,-114 77,-75 115,-172 115,-289l0 -1386c0,-118 -39,-214 -118,-290 -79,-75 -180,-113 -305,-113l-1330 0c-13,0 -20,7 -20,20l0 2333c0,27 -14,40 -40,40l-142 0z"/>
   <path class="fil0 str0" d="M1607 6141c0,-27 13,-41 40,-41l1552 0c171,0 317,58 438,174 121,116 182,256 182,421l0 423c0,212 -75,363 -224,454 -150,90 -315,136 -497,136l781 957c17,20 12,30 -15,30l-201 0c-27,0 -49,-10 -66,-30l-771 -942c-10,-10 -22,-15 -35,-15l-519 0c-27,0 -40,-14 -40,-41l0 -121c0,-27 13,-40 40,-40l867 0c137,0 248,-34 332,-103 84,-69 126,-167 126,-295l0 -403c0,-118 -39,-214 -118,-290 -79,-75 -183,-113 -310,-113l-1340 0 0 2353c0,27 -14,40 -41,40l-141 0c-27,0 -40,-13 -40,-40l0 -2514z"/>
   <polygon class="fil1" points="9492,3066 9722,2668 9951,2270 10411,2270 10870,2270 11100,2668 11330,3066 11100,3464 10870,3862 10411,3862 9951,3862 9722,3464 "/>
   <polygon class="fil0 str2" points="9492,4672 9722,4274 9951,3876 10411,3876 10870,3876 11100,4274 11330,4672 11100,5069 10870,5467 10411,5467 9951,5467 9722,5069 "/>
   <polygon class="fil2" points="12186,3117 11267,3117 11267,3017 12186,3017 "/>
   <polygon class="fil3" points="12161,4722 11242,4722 11242,4622 12161,4622 "/>
   <circle class="fil1" cx="11010" cy="5594" r="160"/>
   <circle class="fil0" cx="12241" cy="4672" r="160"/>
   <circle class="fil1" cx="12241" cy="3067" r="160"/>
   <circle class="fil1" cx="9492" cy="1475" r="160"/>
   <circle class="fil1" cx="8167" cy="2362" r="160"/>
   <circle class="fil1" cx="8574" cy="3067" r="160"/>
   <polygon class="fil2" points="10969,5644 9880,5644 9880,5544 10969,5544 "/>
   <polygon class="fil4" points="10554,3890 9812,5174 9734,5110 10059,4548 10059,4548 10467,3840 "/>
   <polygon class="fil2" points="9536,1451 10010,2271 9521,3117 8545,3117 8071,2296 8157,2247 8387,2644 8387,2644 8602,3017 9464,3017 9679,2644 9679,2644 9894,2271 9449,1501 "/>
   <polygon class="fil4" points="10009,2270 10749,3552 10570,3862 10455,3862 10634,3552 9894,2270 "/>
   <polygon class="fil5" points="8064,5594 8294,5196 8524,4798 8983,4798 9443,4798 9672,5196 9902,5594 9672,5992 9443,6390 8983,6390 8524,6390 8294,5992 "/>
   <circle class="fil0" cx="7187" cy="5602" r="160"/>
   <polygon class="fil3" points="8090,5644 7182,5644 7182,5544 8090,5544 8072,5575 8061,5594 "/>
   <path class="fil2" d="M8032 5575c157,-271 313,-543 470,-814l962 0 481 833c-160,278 -321,555 -481,833l-962 0 -481 -833 11 -19zm294 -360l-219 379 438 758 876 0 438 -758 -438 -758 -876 0 -219 379z"/>
   <polygon class="fil3" points="9714,5343 9541,5644 8136,5644 8107,5594 8136,5544 9484,5544 9657,5244 "/>
  </g>
 </g>
</svg>
